<?xml version="1.0" standalone="no"?>
<!DOCTYPE svg PUBLIC "-//W3C//DTD SVG 20010904//EN"
 "http://www.w3.org/TR/2001/REC-SVG-20010904/DTD/svg10.dtd">
<svg version="1.0" xmlns="http://www.w3.org/2000/svg"
 width="900.000000pt" height="512.000000pt" viewBox="0 0 900.000000 512.000000" 
 preserveAspectRatio="xMidYMid meet">

<g transform="translate(0.000000,512.000000) scale(0.100000,-0.100000)"
fill="#000000" stroke="none">
<path d="M4295 5110 c-250 -28 -285 -34 -444 -74 -146 -37 -292 -91 -438 -161
-282 -135 -476 -270 -697 -484 -418 -407 -672 -916 -758 -1516 -17 -117 -16
-533 1 -640 21 -135 49 -268 77 -361 14 -49 31 -105 36 -124 37 -127 167 -401
264 -552 272 -426 712 -803 1155 -989 723 -303 1517 -272 2204 87 434 227 773
553 1024 984 389 671 448 1519 155 2235 -137 334 -309 591 -568 851 -260 259
-517 431 -851 568 -200 81 -331 116 -638 166 -86 14 -430 21 -522 10z m497
-246 c506 -64 975 -293 1339 -654 362 -359 575 -772 666 -1290 26 -150 26
-568 0 -724 -54 -318 -168 -620 -333 -878 -85 -133 -264 -358 -284 -358 -5 0
-14 19 -21 43 -90 336 -242 605 -468 826 -88 86 -258 219 -323 252 -20 10 -40
23 -43 29 -4 6 10 35 30 66 148 222 203 512 149 779 -35 173 -135 355 -272
497 -153 158 -357 264 -575 299 -106 16 -299 7 -402 -21 -91 -24 -238 -91
-318 -144 -192 -128 -343 -337 -412 -571 -33 -112 -45 -303 -25 -422 24 -149
100 -338 177 -439 27 -36 28 -34 -72 -99 -363 -233 -616 -570 -727 -967 -18
-65 -38 -118 -43 -118 -12 0 -93 82 -157 160 -94 115 -217 311 -283 454 -96
207 -137 344 -197 651 -19 95 -16 559 4 670 52 287 101 439 212 670 114 235
259 439 445 626 263 262 585 459 930 568 199 63 271 78 496 104 88 11 395 5
507 -9z m-97 -1370 c154 -41 314 -144 408 -261 72 -91 102 -145 139 -250 24
-72 31 -110 35 -209 7 -157 -10 -242 -79 -384 -46 -94 -62 -115 -152 -205 -83
-82 -116 -107 -186 -142 -107 -53 -173 -72 -280 -83 -377 -37 -717 192 -831
560 -20 63 -24 97 -24 210 0 162 11 212 75 345 104 216 299 371 530 425 101
23 268 21 365 -6z m-767 -1599 c117 -79 250 -134 395 -161 122 -24 323 -14
441 20 110 33 219 83 297 136 32 22 66 40 76 40 24 0 143 -72 250 -152 228
-171 422 -443 508 -714 27 -88 65 -255 65 -291 0 -27 -106 -110 -255 -200
-285 -172 -605 -281 -950 -323 -151 -19 -488 -8 -645 20 -360 64 -677 198
-978 414 l-82 60 6 50 c4 28 11 59 15 68 5 9 9 32 9 50 0 56 78 277 136 385
132 246 309 429 561 581 48 28 90 52 93 52 3 0 29 -16 58 -35z"/>
</g>
</svg>
